
<global>
amp_veltrack=0
</global>

<group>
amp_veltrack=0
ampeg_decay=20
ampeg_sustain=0
group_label=Group_0-45
lpc_hicc1=42
lpc_locc1=0

<region>
hikey=G#2
hivel=127
lokey=G2
lovel=1
lpc=nfn2QkgllcP+THVD4obnwkf5m0Izry/CvRHYQc42AMJjNKxBJ6IawTnjSEHTryfBN83BP01+50CzOxnAFh+YQCRGfcHc0uFAkbjvwBR8FkF2bb0/txHyPwGmYcHjExJB
lpc_rms=-29.27
pitch_keycenter=G#2
sample=Contrabassoon_mordent_semitone_PP_G#3.opus
</region>

<region>
hikey=G#1
hivel=127
lokey=G1
lovel=1
lpc=TpCoQi2kTsNv0DxDyS/YwgKQX0KxfJHBkfQ9Qb0ejMHJrGtBRQkDwGd4MMBvpKVAzeo7wf9JEEFVZEA/dMBlwHaWH0AZSBVAe5HfwBszjMAP9v9A15iAwNwGukAHyDTA
lpc_rms=-31.03
pitch_keycenter=G#1
sample=Contrabassoon_mordent_semitone_PP_G#2.opus
</region>

<region>
hikey=F#2
hivel=127
lokey=F2
lovel=1
lpc=S2pFQwOH5sP+fKFDQfAJww0OFUMZS1TCVjlFQce+A8JizIbBLO1yQQBlRz40UapAyV43Qe+xYsEFxSNBDBfpwJrMgsHgILxBenU6wZP/+0DDnMvAtIAcQR+MQ8G+a51A
lpc_rms=-25.80
pitch_keycenter=F#2
sample=Contrabassoon_mordent_semitone_PP_F#3.opus
</region>

<region>
hikey=F#1
hivel=127
lokey=F1
lovel=1
lpc=iAksQ0U6yMP+4oZDOEWgwo0Tt0LyGQ3C4ivswHLSocGYubLAVj4+QR5hHsFR5R5CkZHLweJV4UCbJkFAKomtwbJT+L/fT1dB0jaGwZSLZEKtlmfCXuIqQiZkRsJZ68NB
lpc_rms=-26.20
pitch_keycenter=F#1
sample=Contrabassoon_mordent_semitone_PP_F#2.opus
</region>

<region>
hikey=E2
hivel=127
lokey=D#2
lovel=1
lpc=01/nQjipgcOh10FD+a/FwvdhhEICReXB3AwiQhoY+sGHala+g20eP/aX+D7MaS5Bj7YIwc50mMC1qL1A7cyuwMYumb9p2QtBOddywEVQOECn5Z3AAmlBQJAy28CUT7VA
lpc_rms=-29.13
pitch_keycenter=E2
sample=Contrabassoon_mordent_semitone_PP_E3.opus
</region>

<region>
hikey=E1
hivel=127
lokey=D#1
lovel=1
lpc=weoLQxmmo8PV52dD4AaswuQ0qELT4PLBfDRGwPM6icGFi2rAWRqwQESiEEAaHIhBRHopwW11e0BOx1pAxm6zwVWR7z/raSRBWIc8QYdoCcHERu2/uff7QKgYvMFsh29B
lpc_rms=-30.51
offset=3533
pitch_keycenter=E1
sample=Contrabassoon_mordent_semitone_PP_E2.opus
</region>

<region>
hikey=A3
hivel=127
lokey=C#3
lovel=1
lpc=wvsOQ8ycocNjc2ND4KKqwpMIiUJujbPBuoaiQfYPSMLngm5ALtGGQRicCEFF7BzAE4PoQG1W3MGP1RJCAqLAwdD9O8Ca1C9AmpuCQP5cyT+c35DAD5UwQf4FlcEK4yhB
lpc_rms=-26.25
pitch_keycenter=D3
sample=Contrabassoon_mordent_semitone_PP_D4.opus
tune=-38
</region>

<region>
hikey=D2
hivel=127
lokey=C#2
lovel=1
lpc=vTzsQocUk8P+YoRD6bgbw8juyUL3iiXCg0lLQj4RisI8eIxBr8X7QCLFAkGV07M/CyNHwfj0vMBGR4NBdGBlwV+8FkEwv09AlZkSwZM1akHDXYzBgnhIQSzzf8FHgihB
lpc_rms=-26.84
pitch_keycenter=D2
sample=Contrabassoon_mordent_semitone_PP_D3.opus
</region>

<region>
hikey=D1
hivel=127
lokey=C#1
lovel=1
lpc=7eYMQ1WXlcPq3UVD4AHrwmU4CUPQkJvCVD5OQgQTQcIb+YNBIusmwdcofz85AVdBLu0LQSbUgsDIjb++PmewwYg0+kAncpRAznJ2P1p5x0DTfS3B/3epQM476MCLa8FA
lpc_rms=-26.87
pitch_keycenter=D1
sample=Contrabassoon_mordent_semitone_PP_D2.opus
</region>

<region>
hikey=C3
hivel=127
lokey=B2
lovel=1
lpc=u4GNQpFoGsMWm9JCElBewjtvUULfdSvBI/uiQHlBjMHEmt1AAJJewT95IkG2vuZAVD1LPdyFwsCn2xNAZEjZwH0mZ0BaVYE/bysSQP70vkAHcy7Bi9WyQD/iG8HX2epA
lpc_rms=-34.24
pitch_keycenter=C3
sample=Contrabassoon_mordent_semitone_PP_C4.opus
</region>

<region>
hikey=C2
hivel=127
lokey=B1
lovel=1
lpc=89RSQjvu88LApe5C4ZHBwkVxlEIoHlHCX3wdQkJYzcEY9WhBTMBlQCp3VsG6DZtBd5+swdn0p0HaZELBYbAgPxNacsDu5h0/0ZmPv+NS5UDyIObAi9WFQBPx/z2/Xv++
lpc_rms=-31.08
pitch_keycenter=C2
sample=Contrabassoon_mordent_semitone_PP_C3.opus
</region>

<region>
hivel=127
key=C1
lovel=1
lpc=LS9pQ6c6EMQ/2QRE6pyww1oFjEPAXB7DmXG3QlqikMLyxA5CEjfRwfYIrkDWR6lBjboYwbCiA0EQL5NAX8qbwYeGIcBC6pdBoyTnwRBWX0G3znRBbMyTwNSlpME3wV9B
lpc_rms=-20.39
sample=Contrabassoon_mordent_semitone_PP_C2.opus
</region>

<region>
hikey=A#2
hivel=127
lokey=A2
lovel=1
lpc=xN4cQ0DAscPIiIRDwdQEw3xo4EIuXkrC0TgGQstbYcJIUw9CghgLwogkCEJHd6O/5KdmvxIYhkEBs6fBQ2WHwP24a8DsxIJApK+WQCkKxUDoLKfAHu4pvwtCW8GzWUNB
lpc_rms=-27.30
pitch_keycenter=A#2
sample=Contrabassoon_mordent_semitone_PP_A#3.opus
</region>

<region>
hikey=A#1
hivel=127
lokey=A1
lovel=1
lpc=VyfiQhK3eMMFIydDO9uXwkAPokJvkzbC9R8pQiy8dsKLqxNCBQJewctoWUEDzq3ApDNSwCZ+iD+YweE/U2KOPwSupsActAe/1p8YQPGeC8CE0CdANpmeQBmaAcEJqVRA
lpc_rms=-29.13
pitch_keycenter=A#1
sample=Contrabassoon_mordent_semitone_PP_A#2.opus
</region>
</group>

<group>
amp_veltrack=0
ampeg_decay=20
ampeg_sustain=0
group_label=Group_46-90
lpc_hicc1=84
lpc_locc1=43

<region>
hikey=G#2
hivel=127
lokey=G2
lovel=1
lpc=2qn6QnJ0kMMKWEFDgaeLwn5mokInE+zBYrBLQXNII8Kv205B8kpGwQTlxEGg+ALBKpMyQRHXL8EyxjzA2WMLwHy8/MCES4pBpvoPQOEuPz+2V9LAu1NawDkkhcDkRdBA
lpc_rms=-24.60
pitch_keycenter=G#2
sample=Contrabassoon_mordent_semitone_MF_G#3.opus
</region>

<region>
hikey=G#1
hivel=127
lokey=G1
lovel=1
lpc=d6zCQsK1ccMrDldDKQzpwsBaaEKy/cXAYbIPQZwD4MGcd/RBo4i8wfa1r0AWxx7AVvu4v+y2GEGeLG/A2QqRPoQNYcBi74k/Ry8Cv4wohkAXtoJAAXSywFvkCcGYBfRA
lpc_rms=-27.78
pitch_keycenter=G#1
sample=Contrabassoon_mordent_semitone_MF_G#2.opus
</region>

<region>
hikey=F#2
hivel=127
lokey=F2
lovel=1
lpc=YdpVQyrk/8P//8pDqmtVwyFoK0PD/VrC1ZyOQQZfV8K+wa1BgXLMQf2dTcL6sJVCo4h0wqBlm0EP9TXB2uNPP//IHsFH1dRBZ/SiwKhduj9TzAzBPgfqv8Mk90DVZVbA
lpc_rms=-20.34
pitch_keycenter=F#2
sample=Contrabassoon_mordent_semitone_MF_F#3.opus
</region>

<region>
hikey=F#1
hivel=127
lokey=F1
lovel=1
lpc=OzMmQ4ytv8N3MopDxCwLwwdkDkNXKUPCAkJTQaSlR8JRo9hBPk8uwWttJsANwLNBHnUgwVf63cCyoolB0+60wSlnCEDYS1FBwKXxwARIDEHyUw+/kG0FwfLMhcCfxtFA
lpc_rms=-22.72
pitch_keycenter=F#1
sample=Contrabassoon_mordent_semitone_MF_F#2.opus
</region>

<region>
hikey=E2
hivel=127
lokey=D#2
lovel=1
lpc=h8/mQgaAicMNDm1DR/Ycw6LP9kITlVPC/70iQu0COsJb55hBa1sKwXvASb8bl8dBil2xwSVSB8EBG4FBs7pNwTk5v0Bcc9RAhdwcv70SREAo4DLByqRtQCe2l8DGlKtA
lpc_rms=-24.10
pitch_keycenter=E2
sample=Contrabassoon_mordent_semitone_MF_E3.opus
</region>

<region>
hikey=E1
hivel=127
lokey=D#1
lovel=1
lpc=pZLOQrHahsPAXIxDHrhUw57qGUPXzYnCCkiiQYT2w8BUXMZA7QhMwQoqC0EZfnvAEwAswMiQAEE44iXANiXXPgWsBcC3s67A3AInQa+K+j4jXYPBrp6NQUzQH8EUx1pA
lpc_rms=-26.69
pitch_keycenter=E1
sample=Contrabassoon_mordent_semitone_MF_E2.opus
</region>

<region>
hikey=A3
hivel=127
lokey=C#3
lovel=1
lpc=RgLfQu1/dMPnrTRDnaTIwuwUi0KTAh7Bwb9uQaW/xMFu1K7AW/ScwG6NqkGvvaPA7HgMQb5WP8Fzr4BAM9RDwWlAC0FyvJE/j9QjvogH5b8n3/Q/k/JNwLFQMb/B3VRA
lpc_rms=-24.07
pitch_keycenter=D3
sample=Contrabassoon_mordent_semitone_MF_D4.opus
tune=-44
</region>

<region>
hikey=D2
hivel=127
lokey=C#2
lovel=1
lpc=ssvPQrRdd8MkelhDW1UMw9xdpEL1iyE/NudCQXL5JMJHripBo+WZPxhNiD4qfgpBFlEuwIBUS8EBmEJB+WcQwXEypEA1A6k/q8cFQbMwKcE9YktAz32FwEfVacBC8sdA
lpc_rms=-22.87
pitch_keycenter=D2
sample=Contrabassoon_mordent_semitone_MF_D3.opus
</region>

<region>
hikey=D1
hivel=127
lokey=C#1
lovel=1
lpc=Je4UQ1orsMNJ1o1D+N8rw767KEPMGMnCARVjQjTyP8L80KhB6g++wT7hnEGeMiPAqb8CQcg7GUCHhw7BEZwIwbOoyT+KOQFAm0nrQMfplEATfxPA4hTrwOEXCsGlhCNB
lpc_rms=-24.53
pitch_keycenter=D1
sample=Contrabassoon_mordent_semitone_MF_D2.opus
</region>

<region>
hikey=C3
hivel=127
lokey=B2
lovel=1
lpc=LwiSQuKmIMMci9NCav8mwqNrIEICOirBYFO8v6NMl8AbyF9AYhOTwNgNJEAvQWTAdrsGQPg3F7+Ak+w/oBIOwC8oJ75SfKBAazPwPk9wEEBcHeTAu/rrv6ynDMDdf6hA
lpc_rms=-27.22
pitch_keycenter=C3
sample=Contrabassoon_mordent_semitone_MF_C4.opus
</region>

<region>
hikey=C2
hivel=127
lokey=B1
lovel=1
lpc=TyTtQjbXlcPlFY9DpuY/w+8FBUMa6EjCCGNKQRbLusFyMgdCHVREwaYsQ8FA9slAWGmawMN0PUD7ab9Ak1XGwOTTssAf8XFBTVIqwTJdTEFFBkrB7bkCwUU+V0EfGhrA
lpc_rms=-24.42
pitch_keycenter=C2
sample=Contrabassoon_mordent_semitone_MF_C3.opus
</region>

<region>
hivel=127
key=C1
lovel=1
lpc=uuRcQzaRB8Tea/NDLs2UwzglUUN8U8/Cl4uNQsJhocI2+IxCHRpcwiM/YEFr/GNBwKkQweY9xEHSH0DBM2mbwaw3er61N5dB3psGwuqPEUIsVj/BCpsLQR7mi8GDLhFB
lpc_rms=-19.89
sample=Contrabassoon_mordent_semitone_MF_C2.opus
</region>

<region>
hikey=A#2
hivel=127
lokey=A2
lovel=1
lpc=h/FFQxLz6MP2JblDmTpSwzJQI0PCFgnCtPkVP5LqNsJ6yypCr426wRUyCUDx49RAftyQwX55vUGJCzpAzBCzwWAGR0HeMY7ABZkPQQg/jsEmu8RBHhmMwYKjQb/MraJA
lpc_rms=-20.21
pitch_keycenter=A#2
sample=Contrabassoon_mordent_semitone_MF_A#3.opus
</region>

<region>
hikey=A#1
hivel=127
lokey=A1
lovel=1
lpc=GuseQ8FAuMMvEoBDRb3SwnwK60IqRVPCmvsQQglXsMLDbohCQEAdwkImmEFoXzNBOWeAwbXNHMC6JRdB3sHawPqQsEB0iATByLRBQYeo9MD9TQ1BRNYMwcqBT8DmIqVA
lpc_rms=-24.53
pitch_keycenter=A#1
sample=Contrabassoon_mordent_semitone_MF_A#2.opus
</region>
</group>

<group>
amp_veltrack=0
ampeg_decay=20
ampeg_sustain=0
group_label=Group_91-127
lpc_hicc1=127
lpc_locc1=85

<region>
hikey=G#2
hivel=127
lokey=G2
lovel=1
lpc=w57PQoCvfsP7altDxsvvwuR2iUIEaFnBlbuaQSUH7sFthChBcgovwRANLEGcI+7A+BoSvY3Y1kCTff0/uhNrv/6nB8GmIbBACQ+tPnQcXMCVt4Q/ZFz5PgTJ+j+AppS/
lpc_rms=-23.64
pitch_keycenter=G#2
sample=Contrabassoon_mordent_semitone_FF_G#3.opus
</region>

<region>
hikey=G#1
hivel=127
lokey=G1
lovel=1
lpc=1tOoQqiiVcONpENDSJbownSznELW5SXCn3UlQqhABMKCI9o/1yEAQTDcE8GG/kBAXj01QBTNzMA8o11BWOmpwa8sn0HcqjTBzsAUQe3IXsAYGP6/Mq9nwDsTlkAg3Wq/
lpc_rms=-22.35
pitch_keycenter=G#1
sample=Contrabassoon_mordent_semitone_FF_G#2.opus
</region>

<region>
hikey=F#2
hivel=127
lokey=F2
lovel=1
lpc=KoEcQ9gWvMN4MpRD4SYkw91qHEOt4WLCB96vPqY7ocGG6Sc/VmF+QWL4jMGN6pdBrxA6wR9uLsFx9t1BEkcQwjS4BEK8pXnB4il2QU/d1MHe8q1BcPFwwMEL7MBbGoBA
lpc_rms=-19.27
pitch_keycenter=F#2
sample=Contrabassoon_mordent_semitone_FF_F#3.opus
</region>

<region>
hikey=F#1
hivel=127
lokey=F1
lovel=1
lpc=dQO6QmQZUMNu5zFDnQoIw7KU0EJe+kXCtfwVQly5BsHjsNLA04zav1p/8sBV22PA6NJcQWNxv8BHzR1B9jc6wQZnKEGBxDjBEn9aPnZmp0DhIXrA5Um8PxxXqEARU3rA
lpc_rms=-18.76
pitch_keycenter=F#1
sample=Contrabassoon_mordent_semitone_FF_F#2.opus
</region>

<region>
hikey=E2
hivel=127
lokey=D#2
lovel=1
lpc=A5ibQsDZQcOcRDZD6PL2wvWCukIbDG7Cg1JzQlPqZ8Kz2ftBmLCJwcRbf0BbGHZBH1uVwdGo8UCKg1a/yV0WwX7lKkHg5cLAXAFEQUtYtsBZXYfADHRzQINF08ACzJhA
lpc_rms=-20.71
pitch_keycenter=E2
sample=Contrabassoon_mordent_semitone_FF_E3.opus
</region>

<region>
hikey=E1
hivel=127
lokey=D#1
lovel=1
lpc=EJ+AQirMF8M7vQhDaqTMwjpDoUINCTDCJI8DQq+LML8VQW/BYe5CwQuUbkF1QgnB6i/KQPur5cAI1FNBMbRJwacwXEFgJGDBZjgvQd4fCsHvFglBvbDIwP8r7L+SjD9A
lpc_rms=-22.94
pitch_keycenter=E1
sample=Contrabassoon_mordent_semitone_FF_E2.opus
</region>

<region>
hikey=A3
hivel=127
lokey=C#3
lovel=1
lpc=J0L6Qm8ni8N+lVVDOjj3whNxqELTaYXBKMP8QTk5ZsLLGMhBnY98wQfIuEEkJVvBVSxTQZJteMHTAItBHJ5swVn7zrx4ymVAN6ucvkazO0BC+8bAyiEAQXV4WcFxuxhB
lpc_rms=-20.75
pitch_keycenter=D3
sample=Contrabassoon_mordent_semitone_FF_D4.opus
tune=-47
</region>

<region>
hikey=D2
hivel=127
lokey=C#2
lovel=1
lpc=dWl7Qq97E8Phov1CfGmewjPlN0LLaUzA8WEtQbyrr8GV25ZASrbvwN9CnkHmEK/BsRe2QbnQpMHPwTJBDN8ywLITlsDTkAFB1SQpwNi+qz2+k8s/vzRywBeD37+/iFhA
lpc_rms=-19.25
pitch_keycenter=D2
sample=Contrabassoon_mordent_semitone_FF_D3.opus
</region>

<region>
hikey=D1
hivel=127
lokey=C#1
lovel=1
lpc=RHqKQghmGMMmvgJDt8TBwsXAhUKnOC7CjF4lQjHcWEDL6ZvB8JgNQZ8mr8EXXZpBxJtFwdXj0UB4xXZA0bc2wAbLP0AhAwDAT9ZFwCXhnT/epEO+bokAv2AyEj8c7SQ/
lpc_rms=-21.08
pitch_keycenter=D1
sample=Contrabassoon_mordent_semitone_FF_D2.opus
</region>

<region>
hikey=C3
hivel=127
lokey=B2
lovel=1
lpc=aqOaQlbHLcNyWvJCZW9Cws/MKELIhW7B2wn1PzMZMMFu2xtBAbPTwCjkr0BdzpPA9PViQId7kL+HQDhAWftxwE+oR8CpcBJAaVA2QJ78xz+aAAnAU8I4QBa3PsH3ewJB
lpc_rms=-24.50
pitch_keycenter=C3
sample=Contrabassoon_mordent_semitone_FF_C4.opus
</region>

<region>
hikey=C2
hivel=127
lokey=B1
lovel=1
lpc=+TGJQsPGIsP7Q/9CuMBjwmAwJUIQD7jBtAJ0QVj7X8FLNw9BCPvvvtMBG8FmUe4/qrQRQfJID8HcmmNAHAhZvbRm+r48R5o/w8tPv3s/lUAZUbHAIskvPmZv4L8WdCxA
lpc_rms=-20.17
pitch_keycenter=C2
sample=Contrabassoon_mordent_semitone_FF_C3.opus
</region>

<region>
hivel=127
key=C1
lovel=1
lpc=CXfeQrWBg8PR8nND5JY2w7D3/kLsmmvC/MU8QspcfUDJTk/CkNIHQmePDcIZogtC5IsjwdXu5MAEocBBmOymwQNZ4kAIChrBRZrBQEgPS8CMcpRAugiNP3Tos8Dnk2BA
lpc_rms=-16.42
sample=Contrabassoon_mordent_semitone_FF_C2.opus
</region>

<region>
hikey=A#2
hivel=127
lokey=A2
lovel=1
lpc=MFoTQ0mvscOX/YpD/aQAw1eT00JA/R3CX6lcQfbpF8K9ftNBn2L4wRhKGUJejtPBkLWIQUeSjMHQSLtBphG6wfKFY0GXBa/AyxD/QDHGosCKIojApDO7wGDYYkE3oKXA
lpc_rms=-18.01
pitch_keycenter=A#2
sample=Contrabassoon_mordent_semitone_FF_A#3.opus
</region>

<region>
hikey=A#1
hivel=127
lokey=A1
lovel=1
lpc=25GlQsbwOcPHLQRD9K50wjtBZ0L97PzBHT67QU7+3MFivXxBRJSEwOf/58B87kBBCoIVwc21MUEsE0bBYRmePymPEEB4A+k/x+RFP9g7GUAmu7XAHMuIP1bbhD6n4WE/
lpc_rms=-20.98
pitch_keycenter=A#1
sample=Contrabassoon_mordent_semitone_FF_A#2.opus
</region>
</group>

<group>
amp_veltrack=0
ampeg_attack=2
ampeg_release=0.35
group_label=PP
lpc_hicc1=42
lpc_locc1=0
volume=-3

<region>
hivel=127
key=A#1
loop_end=257062
loop_mode=loop_continuous
loop_start=83562
loop_xfade=21023
lovel=0
lpc=3rlCQ9HV28NOxIBDKyuRwrg2RUNpsDLDcACnQkgnj8KIwc9BeMwJwliWWUJ6dc5B0HmzwU9jBsJa35HBonYiQiiLScFuI6Y+CQMZQe/5CEH/C97BhSaDQYm+Sr+U8My/
lpc_rms=-30.70
sample=Contrabassoon_sustain_PP_A#2.opus
</region>

<region>
hivel=127
key=A#2
loop_end=240343
loop_mode=loop_continuous
loop_start=78127
loop_xfade=19656
lovel=0
lpc=TZ3SQ3SrfMTOTwtEAWwkQt9caUMjokjDVb1YQTzhFMPJgphCRpn3whWEM0PSTElBly4zQoeO38JcOzDC5sG+QlQ/z8J/H61CwSWwQfgO3sHE4RHCsSyVQZwxP0E3QLfA
lpc_rms=-26.60
sample=Contrabassoon_sustain_PP_A#3.opus
</region>

<region>
hivel=127
key=A1
loop_end=255665
loop_mode=loop_continuous
loop_start=83108
loop_xfade=20909
lovel=0
lpc=aHeKQ/zAIcQpy7VDIdEYwk/cbkMMhVTDyIrpQQf9iME9qF7BJDSuwPkF00FY745BVKFKwWHUMb/JM17BsWS7Qcv+usFQ8qrBVeolQnHoj0A11NfAx5ZCwc9hmMCn0wVB
lpc_rms=-32.23
sample=Contrabassoon_sustain_PP_A2.opus
</region>

<region>
hivel=127
key=A2
loop_end=246174
loop_mode=loop_continuous
loop_start=80023
loop_xfade=20133
lovel=0
lpc=t/KOQ26jFcSpr0xDFP+HQkiAWUOeZAzDmSn3v99ATsJY80zBVW7zwSgkS0KtWDxC0BmBwXht6cF0x0BB34FZwQwUYr9R8apBi2kOQYo/K8KybbRBop2SwRjhBULnInPB
lpc_rms=-31.11
sample=Contrabassoon_sustain_PP_A3.opus
</region>

<region>
hivel=127
key=B1
loop_end=253736
loop_mode=loop_continuous
loop_start=82481
loop_xfade=20751
lovel=0
lpc=dRNOQzKY6sO131lDhtFdQpw8G0OLiUPD/ka4QX1QIcIs7kpCTdEhwgPqrEIyM5bB8MsWwYTnasKGz9BAVlAQQsprsD/LXTVBKkCDwKjBpcGlcUbBUqKFQZYoc0GFJkDB
lpc_rms=-31.72
sample=Contrabassoon_sustain_PP_B2.opus
</region>

<region>
hivel=127
key=B2
loop_end=252033
loop_mode=loop_continuous
loop_start=81927
loop_xfade=20612
lovel=0
lpc=TrObQ25nRsRwrfxDJGEtQncJw0J0qSfD+qxFwZwFM8KlaM1BzoO4QSY3DEItcsBBqDMdws3ag8EOg19AZmJdwevgf0H5cYJAgBhGQbhj7MAmjyXB2GydQCaSgcAYM3BA
lpc_rms=-30.75
sample=Contrabassoon_sustain_PP_B3.opus
</region>

<region>
hivel=127
key=C#1
loop_end=264349
loop_mode=loop_continuous
loop_start=85931
loop_xfade=21619
lovel=0
lpc=0XMORIPCpsQptkhEU/7owvattENcVHzDRNEPwq44fsK5NBNCdObTQLsQP0IW505CpdXmwWse3cLW/ijBaMPmQisEaT7VspbC2OUAQoJUR0KbBAjCIjNxwbGYCcIRPRZC
lpc_rms=-26.39
sample=Contrabassoon_sustain_PP_C#2.opus
</region>

<region>
hivel=127
key=C#2
loop_end=256542
loop_mode=loop_continuous
loop_start=83393
loop_xfade=20980
lovel=0
lpc=BlWDQ0XjF8Sz8rFDHef9wQJuD0OGASLDUQ/YQtOm78KIfvJBiKhFwbVBjELO2VRBx4Wtwbq4ncJQeSFCeaLPvx0SjECanTU/GjzGQbT0Q0E4WoXBVr1xwg61aULOHTXB
lpc_rms=-29.56
sample=Contrabassoon_sustain_PP_C#3.opus
</region>

<region>
hivel=127
key=C#3
loop_end=247199
loop_mode=loop_continuous
loop_start=80356
loop_xfade=20216
lovel=0
lpc=pwiyQttzS8NcbwxDo6iSwvogvkLwHQbCmKqrwN2nu8GQ8IVBDS2hwWyWx0Gql0S96MrIv4OJ7sAdsnHA1M8LQaZ7F8HsmRRAl9/CQGIGMEFtZ03B0HQ3vysICsCm0UhA
lpc_rms=-36.56
sample=Contrabassoon_sustain_PP_C#4.opus
tune=+96
</region>

<region>
hivel=127
key=C1
loop_end=264511
loop_mode=loop_continuous
loop_start=85983
loop_xfade=21632
lovel=0
lpc=TJnsQ6gyoMRItYJE0K94w8OdiEO/Or3Dxbc+Q4VpHcNJ+irCrWwXQ5tqBEKm3tFBI9GSwlDllsInZx1Cn6WbQa//zkH5dllAJQhFwjkOVEKGHAzCG6QNQol9gcLU7xZC
lpc_rms=-24.30
sample=Contrabassoon_sustain_PP_C2.opus
</region>

<region>
hivel=127
key=C2
loop_end=255028
loop_mode=loop_continuous
loop_start=82901
loop_xfade=20857
lovel=0
lpc=U0IzQ1vVvcMURStD17wjwgWZQUO9zN7CpN/0QTlFdMILsY/BmlOkQHGeGEKj0yFCwfFKwqCo28AZHXhBmF4DwQXwGcGohWC/V7OxQa/ysEBuH6XAkwJ5wTWZ2L5w9+ZA
lpc_rms=-34.38
sample=Contrabassoon_sustain_PP_C3.opus
</region>

<region>
hivel=127
key=C3
loop_end=252798
loop_mode=loop_continuous
loop_start=82176
loop_xfade=20674
lovel=0
lpc=MSPOQpmFZ8Oj5AlDBIQ3wru8uEKX2CHCWeiSv7GlGMITEeJBPqUCwsW6yEH1u9ZBc284wWwS2sCdk6zBsZ5QQbRTIsD5umFAPLINQVrNH0BIJSDAdgXywG5GIMEoujNB
lpc_rms=-36.31
sample=Contrabassoon_sustain_PP_C4.opus
</region>

<region>
hivel=127
key=D#1
loop_end=257352
loop_mode=loop_continuous
loop_start=83656
loop_xfade=21047
lovel=0
lpc=qSyRQ5lKKcQJOeZDgJJfw1fbtEMYu3TDv4i+QrJ48cIW6OZBXv1WQSBMAkKTKhJCYJzZwbvdFcKfqmrCshTYQrxhw8EIDBrCeyOWQFrJC0Jen+VBFg5jwtdxYD94LlZB
lpc_rms=-26.89
sample=Contrabassoon_sustain_PP_D#2.opus
</region>

<region>
hivel=127
key=D#2
loop_end=255045
loop_mode=loop_continuous
loop_start=82907
loop_xfade=20858
lovel=0
lpc=mV3qQsVbccMfwKZCdN18QZ6v4UIOlpvCqJ8yQL6Q0MEKcwHBuCLBwHqBCkJpwfFBINivwfD7O8J/q+dB11KjwLW3oEEKDX/BHEzCQNCLKUHSi1vBWQpswaMgpUEPNp7A
lpc_rms=-36.38
sample=Contrabassoon_sustain_PP_D#3.opus
</region>

<region>
hivel=127
key=D1
loop_end=257613
loop_mode=loop_continuous
loop_start=83741
loop_xfade=21068
lovel=0
lpc=fhuBQwCxI8SryQZEBjyEw3MIlENnAF7DvYqaQiJDXsL+8LLAMyXZQcLxi0HNmINBhvKWweSi7cH2v6tAOx81Qk8nBcJsiOjBoBm7QXYw7UHsCUA/23sAwm3EjMDV9WBB
lpc_rms=-29.45
sample=Contrabassoon_sustain_PP_D2.opus
</region>

<region>
hivel=127
key=D2
loop_end=259863
loop_mode=loop_continuous
loop_start=84473
loop_xfade=21252
lovel=0
lpc=QRCEQzEZH8TKJ+dD5GtSwyRKh0P0xyHDrT3BQnhl6sKTfmvBiqz8P44daEKFAzdCet0UwrAFTcJFySpB3I9bQVYY7b9KdpJBIQK9v4p1TkHI0szBHRDewNle/j57UCZB
lpc_rms=-29.19
sample=Contrabassoon_sustain_PP_D3.opus
</region>

<region>
hikey=A3
hivel=127
lokey=D3
loop_end=250732
loop_mode=loop_continuous
loop_start=81504
loop_xfade=20505
lovel=0
lpc=3ppmQysOFcQ4fwxEvPqow4tJUENEQCfC2RhaQYFyfcKHnLZB4Y1QwuD4iEKcBqvAb3cjQg9Yg8If7I1B93tdwTFqbUBH1LzBzUN6QiHcn8E/RJJAlEL4wZkZXEHogilA
lpc_rms=-28.01
pitch_keycenter=D3
sample=Contrabassoon_sustain_PP_D4.opus
tune=-1
</region>

<region>
hivel=127
key=E1
loop_end=262969
loop_mode=loop_continuous
loop_start=85482
loop_xfade=21506
lovel=0
lpc=XWtoQ7uECcQAkb9DA6M0w3cqhUNb4A/DtzSsQRQhLML1DwXCAFWeQVMiIEJ5S2ZBoOtgwdYuncCZOhDAgozYwN0TdcGwmY1AOxP7P4hX2kECjvDAuOUOQF8e9sHapZlB
lpc_rms=-32.21
sample=Contrabassoon_sustain_PP_E2.opus
</region>

<region>
hivel=127
key=E2
loop_end=253299
loop_mode=loop_continuous
loop_start=82339
loop_xfade=20715
lovel=0
lpc=sRUuQ6CN18M8j6pD1rEAw+1I4kJYc93C1jHAQqdRl8LsPghALx2LwEZsQkLY1Xg+7LdWwXhc98HDv5JBeHP/wFD/hEBJdlFAj+7kQX96msECTJrBnpcCQVteJL+qtJhA
lpc_rms=-31.09
sample=Contrabassoon_sustain_PP_E3.opus
</region>

<region>
hivel=127
key=F#1
loop_end=255861
loop_mode=loop_continuous
loop_start=83172
loop_xfade=20925
lovel=0
lpc=aUukQ1oQW8RR6C9EAesGw5zd90K2g2vD6Y6oQlZGzsDeshc+0EAMQHYp20Go7+9BYKLdweOTbcLXEKZBZu/xQRVMLcHh9xJBlKUMwRYoRUG7mKzBIOV/QeY8o8G8AV1B
lpc_rms=-29.69
sample=Contrabassoon_sustain_PP_F#2.opus
</region>

<region>
hivel=127
key=F#2
loop_end=254287
loop_mode=loop_continuous
loop_start=82660
loop_xfade=20796
lovel=0
lpc=KV3EQ0t5Z8Tq+uNDgegEQwy1OkO/22XDmZ2LwWizlsIhGR9CtDPcQci+SUKebyZBdQIXwppeZMIsrlpChZOgQPy3nsHTLhjCmZp+Qv2FrkFGRSHCKnexwe7u2UGMDZfA
lpc_rms=-28.71
sample=Contrabassoon_sustain_PP_F#3.opus
</region>

<region>
hivel=127
key=F1
loop_end=256981
loop_mode=loop_continuous
loop_start=83536
loop_xfade=21016
lovel=0
lpc=cXCwQ/ZDTcSZi+RDVJRVwQMdY0PJ8GXDXu9aQnjXrsGrph/CVIQmwiZIg0JiJZFC0t4HwvGwVMGs1lTB7LzpwaZGvUH8m6/BLacTQnYiCUEVc6fBu/ZnQTbCAcJHepxB
lpc_rms=-30.13
sample=Contrabassoon_sustain_PP_F2.opus
</region>

<region>
hivel=127
key=F2
loop_end=258534
loop_mode=loop_continuous
loop_start=84041
loop_xfade=21143
lovel=0
lpc=rz75Qq3FksPtAzNDqEQKwdtQZELTZ6DC5yo0Qqe7X8JUYQFCoebEwMFEu0HSaWVA79PAwYHeeMGxnnJBUjwDQWYTDsF5bBBBzbLJQAs8EMHpcQHBxObEP34b8UDxkBvA
lpc_rms=-35.97
sample=Contrabassoon_sustain_PP_F3.opus
</region>

<region>
hivel=127
key=G#1
loop_end=265860
loop_mode=loop_continuous
loop_start=86422
loop_xfade=21743
lovel=0
lpc=S+xHQ01uBMQ6l9FDqo+owinMtUItkQfD0gETQgiIi8FB5KhApga2PyV8DkKEVWdBUQTWwXW52cFyMdy/ZBVoQTW53UCuV91A93rPPy5xQsHlVmvAcFxUwPJIY0EBJ7HA
lpc_rms=-33.63
sample=Contrabassoon_sustain_PP_G#2.opus
</region>

<region>
hivel=127
key=G#2
loop_end=255108
loop_mode=loop_continuous
loop_start=82927
loop_xfade=20863
lovel=0
lpc=XqeaQxFDPcSXeOxDACCSwqmlc0M+fRXDMRQjwngqPMLwL5dBNTljwt2ZkEL/qodCC0eYwK71hsJaBADAh1+EwV2FbUHWSXJB383ZQaGkz8DPovDBYcYGQNzPjUAZa1NA
lpc_rms=-29.72
sample=Contrabassoon_sustain_PP_G#3.opus
</region>

<region>
hivel=127
key=G1
loop_end=254389
loop_mode=loop_continuous
loop_start=82693
loop_xfade=20804
lovel=0
lpc=xF9NQ6JhDsTgaQNEJ9Y2w1RitkKZG/bChymBQo3zE8KOFxtCUlDVwV9S/0H9jR9Bjzgnwjfv0T+HmYBA7M3CQUrtasExuYrAnYZsPwodTcC59BlAA8h9QaMTt8FN9xtB
lpc_rms=-31.29
sample=Contrabassoon_sustain_PP_G2.opus
</region>

<region>
hivel=127
key=G2
loop_end=264684
loop_mode=loop_continuous
loop_start=86040
loop_xfade=21646
lovel=0
lpc=xBKIQyj4McQmdhBErvNBw8puQ0PCGzbDTcdgQlUhecHGGozBYn1cwQ5HbkLsDRhBybkSwmLrNsLnn5VCdxoNwrfCmsFTZ25C5k0IwvOZgUGcIebBkn5AQZ1sOsDF65dA
lpc_rms=-29.54
sample=Contrabassoon_sustain_PP_G3.opus
</region>
</group>

<group>
amp_veltrack=0
ampeg_attack=2
ampeg_release=0.35
group_label=MF
lpc_hicc1=84
lpc_locc1=43
volume=-3

<region>
hivel=127
key=A#1
loop_end=256676
loop_mode=loop_continuous
loop_start=83437
loop_xfade=20991
lovel=0
lpc=t1sHQzXzqsNi6IxDuQ/9wvwp+ELt283CQY2IQnuZnsLpjnJCg1bSwWcl6UALhB4+gTpaQUkLp8HO7+xAenAZwMLDm8BEqNq/s0hkQWmkiEDYswnBsqoMQfWdwMGmt2RB
lpc_rms=-23.59
sample=Contrabassoon_sustain_MF_A#2.opus
</region>

<region>
hivel=127
key=A#2
loop_end=253789
loop_mode=loop_continuous
loop_start=82498
loop_xfade=20755
lovel=0
lpc=ybeJQ2lrIMQ6xr1D6sQYwjUW5UL49r3B39hWwvKdS8Iq3DlAQtodQRGzeEJnqjbA29zHwfAPr8E7BTVBn3yDwcWSC8AjbkZBP+VIQnd/7sG4Jig/ADJTwt6RVUIXe0XB
lpc_rms=-20.11
sample=Contrabassoon_sustain_MF_A#3.opus
</region>

<region>
hivel=127
key=A1
loop_end=260725
loop_mode=loop_continuous
loop_start=84753
loop_xfade=21323
lovel=0
lpc=Lh/pQiQvicPDgEJDJ8mUwmWmq0IaYGzC27JUQmAem8IwjSxCVQ2Xwcv2r0GCcY7B5UexQcbsm8HWKq9AVLubwD5EKsBfEjhBDfwiwX6bbUFrg6bAmDk4wLfnG8G46ApB
lpc_rms=-24.48
sample=Contrabassoon_sustain_MF_A2.opus
</region>

<region>
hivel=127
key=A2
loop_end=246759
loop_mode=loop_continuous
loop_start=80213
loop_xfade=20180
lovel=0
lpc=HbUnQ5y2ycNVDZFDytC6wn57rUIpMM/BPe0jwRKGFsIBcM5B4HebwV3FK0LeMNnASG9ZwXWlRMGNuSZB1YxNwf6eFT+p5bRBWeItwNhThsBbyKfAYFKsvhVbZ8Cd/qpA
lpc_rms=-22.52
sample=Contrabassoon_sustain_MF_A3.opus
</region>

<region>
hivel=127
key=B1
loop_end=250847
loop_mode=loop_continuous
loop_start=81542
loop_xfade=20515
lovel=0
lpc=YAYVQ+8nusM/44pDm+mdwmuxx0JyktXCOy18QkWOd8LSowRCVypqQNFvf8Ho68dBcvTXwZViwkE8Lgy9TfRMwlReLUIYl3u/txScQVjZpsH0jrfB9prYQUpor8BTByi/
lpc_rms=-23.04
sample=Contrabassoon_sustain_MF_B2.opus
</region>

<region>
hivel=127
key=B2
loop_end=250627
loop_mode=loop_continuous
loop_start=81470
loop_xfade=20497
lovel=0
lpc=BpDAQtdNRcOZH8RCFLcHwta9n0JfiDnCKsLfQVxHAMLfgwJBDlKSwadIR0E1qk9ButYYQacZFsGmfRTBN2eLwE8fVsGBT3lBXbcqQUP8TUARJyfB6VgAQCBIscA4BHZA
lpc_rms=-28.47
sample=Contrabassoon_sustain_MF_B3.opus
</region>

<region>
hivel=127
key=C#1
loop_end=249923
loop_mode=loop_continuous
loop_start=81241
loop_xfade=20439
lovel=0
lpc=xrBVQ3jX8MNXZqdDPy1Cw6mijUN1dFrDviHLQiLzfMLh2gpCYu+CQZklZsJ31hpC7oagv/uzJkArh05AwE4/wkmQGkI22+fAWIsnQTQo/UCuoF3Bw003Pns4NcERHjNB
lpc_rms=-20.03
sample=Contrabassoon_sustain_MF_C#2.opus
</region>

<region>
hivel=127
key=C#2
loop_end=259314
loop_mode=loop_continuous
loop_start=84294
loop_xfade=21207
lovel=0
lpc=wWQ2Q/mM7sO7idpDXG97wz9iS0MInsDCgt79QaszpMJvO4xCIHBiwfgkrcEUAwJCmxNWQSIJJ8I5scs9IL9OQavmBsFDrpRB3NmIwS9jIEI8kSvCcFOMQVAnkMEqaj9B
lpc_rms=-20.54
sample=Contrabassoon_sustain_MF_C#3.opus
</region>

<region>
hivel=127
key=C#3
loop_end=254922
loop_mode=loop_continuous
loop_start=82867
loop_xfade=20848
lovel=0
lpc=ytLkQm3thcPJP0pDhRHfwjs6xULMFbHB2YuWQdy2J8I0phtBSchnwdc9zz9cMrJBB3eGPEYxgsFjx49BOMTVwaYzl0FCMR3B5ODuQLTHUUGbN4XBwLq4QCz5HMF83dVA
lpc_rms=-24.97
sample=Contrabassoon_sustain_MF_C#4.opus
tune=-1
</region>

<region>
hivel=127
key=C1
loop_end=259828
loop_mode=loop_continuous
loop_start=84461
loop_xfade=21249
lovel=0
lpc=0ceMQ0aCK8QXw/5DwY0rwxDiPEPK/ybD7+S7QsY54cJFtaVCZug2QTzGb8K6R6xBHl63Qf0H7kA/rOjA+KRowiTKQ0J7P6nBTmNBQnbC4MHkk7LBLIFOQXbsmUBbJQ89
lpc_rms=-17.34
sample=Contrabassoon_sustain_MF_C2.opus
</region>

<region>
hivel=127
key=C2
loop_end=271120
loop_mode=loop_continuous
loop_start=88132
loop_xfade=22173
lovel=0
lpc=9s7gQhczjMMVCWBDjLXDwgL5vUIGII3CFRV3QvRarsKtnGxCTML7wfPgzUFw0kfBXK6sQNw+4r+LQCzAFFpuvGjsPsHTQd1BBhC2wWV7vkH/7MzBLN6IQSc5XsFBDuJA
lpc_rms=-26.46
sample=Contrabassoon_sustain_MF_C3.opus
</region>

<region>
hivel=127
key=C3
loop_end=253994
loop_mode=loop_continuous
loop_start=82565
loop_xfade=20772
lovel=0
lpc=blR8QqswAcP07YlClv/WwUQCE0IKraY/1FHHPiBaj8HIz7q+PV+awF0hEUFrdDlAloBUP4nlV8BEUILAe0xsP9KLyD+poVVA+E8xQCCq4b9xymzAoX3av+F987/0koJA
lpc_rms=-31.42
sample=Contrabassoon_sustain_MF_C4.opus
</region>

<region>
hivel=127
key=D#1
loop_end=265098
loop_mode=loop_continuous
loop_start=86174
loop_xfade=21680
lovel=0
lpc=kLhwQ+8fGsR+AfRDF28yw/bdfUOsdp3DhhxDQ3sN+sKX+aVCL70Nwu4+sT/UVkhCL9VtwrAtIEGODwNBdNX1QW5jiMKvpBtC4JXOQGbwZEEpWkPCZuzhQY6Ulj+10yrA
lpc_rms=-21.62
sample=Contrabassoon_sustain_MF_D#2.opus
</region>

<region>
hivel=127
key=D#2
loop_end=258003
loop_mode=loop_continuous
loop_start=83868
loop_xfade=21100
lovel=0
lpc=T+9wQjseFcOxj/pC5xhewu019kG9T1DBOu3DQWfJQsLXzAdCYm6HwcdEr0HcFmPBty3BQCzPTMGpbF5B3il9wQwfTEEaU5jAkDmeQINOAsDUGq8/o9yfwJ0A0z92KX4/
lpc_rms=-28.84
sample=Contrabassoon_sustain_MF_D#3.opus
</region>

<region>
hivel=127
key=D1
loop_end=262500
loop_mode=loop_continuous
loop_start=85330
loop_xfade=21468
lovel=0
lpc=RGtXQ3jcEsSd+wZE941awzii8kJIbtvCIfWzQgDQCsN4fBdD5im7wkHZXkJM5hrC4RLQQcQFR8FpYhxBjTrqwU4WPEDo3B9CAl/lwbMenUFoNQ3CicLEQQI1bcATYMq9
lpc_rms=-22.25
sample=Contrabassoon_sustain_MF_D2.opus
</region>

<region>
hivel=127
key=D2
loop_end=258301
loop_mode=loop_continuous
loop_start=83965
loop_xfade=21124
lovel=0
lpc=JFTMQhQ/f8MHq2NDdEICw7pxx0JbH2vCDYAaQs9nKcKDZ31B6kPqQHqsVcFKB9xBprPBwSKex0DBjCE/ZHhRQGGw5sAs7KW/DDGqP0zaQEHuMoXBcCkxQRRR7sDsB4JA
lpc_rms=-24.98
sample=Contrabassoon_sustain_MF_D3.opus
</region>

<region>
hikey=A3
hivel=127
lokey=D3
loop_end=256962
loop_mode=loop_continuous
loop_start=83530
loop_xfade=21015
lovel=0
lpc=cR00Q6JN1MPXP7RDBkR5w5rKUEONOZ7CZJWEQrADrMLvtJ1BSZj3wY9UI0KoVF7ANoTKQbYPDMJvrb1BThQOwghqeEBHCjpBhI2qP61yCUL3ZSzC7ogIQicKScIDTd9B
lpc_rms=-22.43
pitch_keycenter=D3
sample=Contrabassoon_sustain_MF_D4.opus
tune=-1
</region>

<region>
hivel=127
key=E1
loop_end=255333
loop_mode=loop_continuous
loop_start=83000
loop_xfade=20882
lovel=0
lpc=MKUdQ9N7x8PZLqlDC788wy/eUkM7TSPD/06QQtchecILHCBChzOnQDKy08EkWvRBDX2fQMwcF8KFj/JB9auuwUIa0j+lFllAdkokQOPIx0FOmyjCMwXfQQhQQ8FHelpA
lpc_rms=-25.74
sample=Contrabassoon_sustain_MF_E2.opus
</region>

<region>
hivel=127
key=E2
loop_end=256390
loop_mode=loop_continuous
loop_start=83344
loop_xfade=20968
lovel=0
lpc=Gu7OQm7Ve8OBkUxD4ZfXwmBg0EIWPo/CHUZCQkXULMKAUGhBKoEWwecnt0CDrERBl8a7P5+E4cFt8AdC1NUMwqSKyUGHQp/AwanLwNmZpEFZnaHBLQLqQMlbLcEiHwZB
lpc_rms=-23.95
sample=Contrabassoon_sustain_MF_E3.opus
</region>

<region>
hivel=127
key=F#1
loop_end=264133
loop_mode=loop_continuous
loop_start=85861
loop_xfade=21601
lovel=0
lpc=OYtvQypAGMSrtQFEAv2PwxOdmEMdcG3DGYAVQ7xmBcNe+UhC+vrBQfkYQ8LENnBCje8kwjQCTkG+sktBCt/Cwd//1EC/USbBmaWQQcKcGkFf/7vB+NwNQZZOKL8tjkM/
lpc_rms=-22.48
sample=Contrabassoon_sustain_MF_F#2.opus
</region>

<region>
hivel=127
key=F#2
loop_end=276913
loop_mode=loop_continuous
loop_start=90015
loop_xfade=22646
lovel=0
lpc=E1WPQ/TPO8SYzCBEALSZw1H4kENQhjrDqBSgQjJGocL0v5nBkXMwQoEbh8EKXZ5C455vwrELf8G/OQNBJ59nwFD068CX5hFCwCZDwWzogUGHR13Cbx4/QhzkmMGSBn1A
lpc_rms=-21.05
sample=Contrabassoon_sustain_MF_F#3.opus
</region>

<region>
hivel=127
key=F1
loop_end=261676
loop_mode=loop_continuous
loop_start=85062
loop_xfade=21400
lovel=0
lpc=Sl9pQ9dsE8QzhOpDa9BCw8P4XEMqtkXDj5rYQvCew8IDK15CSsXWP5L6iMD+cRNBvc0AwmPI60E0lirBzXfMQKVpsMGjBpBBkbOnwFvPyz/7ybk/pqL5QG/iOsFEWm9A
lpc_rms=-21.05
sample=Contrabassoon_sustain_MF_F2.opus
</region>

<region>
hivel=127
key=F2
loop_end=253163
loop_mode=loop_continuous
loop_start=82295
loop_xfade=20704
lovel=0
lpc=ZQimQuxcO8PC5glD84S6wvWD9EK0zqbCfElaQluqkMKh1VtCGwXiwXee5UEbg1PB46nEvvT8JsESXIZA3zqkQE+AB8FbIYJBZEqGwfhNcUFAoTzBqEjgQHFm4sAahoVA
lpc_rms=-28.56
sample=Contrabassoon_sustain_MF_F3.opus
</region>

<region>
hivel=127
key=G#1
loop_end=272053
loop_mode=loop_continuous
loop_start=88435
loop_xfade=22249
lovel=0
lpc=Nq4mQwTDzcMJg4xDC2NewiouD0NbATLDxE6QQtI+UcIWBBRCfOVWQGJeVMCorY9BkLAKwuVng0GTQgTAZNUqwYzVCUHiBDZBRpj9v57KY8B4XIjBxrlTQTmpTEARcETA
lpc_rms=-27.05
sample=Contrabassoon_sustain_MF_G#2.opus
</region>

<region>
hivel=127
key=G#2
loop_end=259642
loop_mode=loop_continuous
loop_start=84401
loop_xfade=21234
lovel=0
lpc=NKAwQ5m4xcObe2JDgCMywpmqo0IkZNi/1x0iwW3Ua8L02RtAOeDVQJAxvkEz2tZAliVvQXwEIsLvH7RB5VodwmRx4UAFlvBBCcOJQRBsYcGeF9jBWiikQTOQOMEghNpA
lpc_rms=-23.86
sample=Contrabassoon_sustain_MF_G#3.opus
</region>

<region>
hivel=127
key=G1
loop_end=256191
loop_mode=loop_continuous
loop_start=83279
loop_xfade=20952
lovel=0
lpc=BwBtQz0EGMRhEPtDBkJ8w/sZl0M32F3DN6SVQt/BysJ3kJNCimRPv7s3K77T1pZBkU9PwY6jMcJ1FldCBvYfwqzIqkFTcNhAYYr/wVExWEIZjS7CnGXdQX/m38HgGVpB
lpc_rms=-23.02
sample=Contrabassoon_sustain_MF_G2.opus
</region>

<region>
hivel=127
key=G2
loop_end=263448
loop_mode=loop_continuous
loop_start=85638
loop_xfade=21545
lovel=0
lpc=lpUDQ2Y9ksMEMD9DksewwlQA1UJ6yh3CCYc8QTI63sENzWlAINoiwYWmWkF536VAuzwNwM4iCj93CMK/C4UjwF8uh8DxLAFBtumUvrNmND8DssXA608CwHVFREBQItk/
lpc_rms=-24.38
sample=Contrabassoon_sustain_MF_G3.opus
</region>
</group>

<group>
amp_veltrack=0
ampeg_attack=2
ampeg_release=0.35
group_label=FF
lpc_hicc1=127
lpc_locc1=85
volume=-3

<region>
hivel=127
key=A#1
loop_end=270311
loop_mode=loop_continuous
loop_start=87869
loop_xfade=22107
lovel=0
lpc=ySuqQhh+V8P9L0lDcQT4wo2VwUKkQYDCIzAmQghFO8IDUUNC9NX0wS9/vEDDLIlAwhvgPz/KhMCFpQI/I/mTvVoT/cAfQ1hB3TAawSHf4ECFRmTAH6jXPvKNpb+0NrU/
lpc_rms=-19.59
sample=Contrabassoon_sustain_FF_A#2.opus
</region>

<region>
hivel=127
key=A#2
loop_end=254666
loop_mode=loop_continuous
loop_start=82783
loop_xfade=20827
lovel=0
lpc=lPYqQ5zNzcNWu5JDavvZwsGVGUOaxObCOXV1QhWNvMLv4XlC+KuGwVB8QcFGghdCW1REwcvA2sBzIc9AZ+GwwdsLKUCwTeVBNsy9wYK2XUE3j0zBILFPQUltOMHcWZ1A
lpc_rms=-18.37
sample=Contrabassoon_sustain_FF_A#3.opus
</region>

<region>
hivel=127
key=A1
loop_end=261452
loop_mode=loop_continuous
loop_start=84989
loop_xfade=21382
lovel=0
lpc=6oK3QgHyS8NS//dCzffAwQZx9UEC8nvBx9aCQSaFCsKxkqZBH39SwEJJ7cCRS7pAhIxuPfgpB0AhPau/teKEQHe3CMGV35hAYo9pwDiLxEAWs2zAnXWLP7PTscD6+ppA
lpc_rms=-20.94
sample=Contrabassoon_sustain_FF_A2.opus
</region>

<region>
hivel=127
key=A2
loop_end=255785
loop_mode=loop_continuous
loop_start=83147
loop_xfade=20919
lovel=0
lpc=ejkHQxRBncMVo2BDIprTwp4x5ULlUV7CDk/pQaoZFsLV32ZBNYeYwWHZdkHNgxtA8q9IQCTlwcDlgupA3xOpweICYUGJ5m3BRavxQRvtpcEAuDxBns/8v9G7VcF/WwpB
lpc_rms=-19.99
sample=Contrabassoon_sustain_FF_A3.opus
</region>

<region>
hivel=127
key=B1
loop_end=268470
loop_mode=loop_continuous
loop_start=87271
loop_xfade=21956
lovel=0
lpc=dnnVQji5ksOn4pxDhfVZw4iPF0PyHafCqb9hQqtrisLlYFJC9LaNwZ5tHcHNEhhCAmAywjHVoEG8EtY/6cBHwVTBHEFk9BfAG9y4P0W9ID/1fpE/uXshQP14G8GyLqJA
lpc_rms=-19.69
sample=Contrabassoon_sustain_FF_B2.opus
</region>

<region>
hivel=127
key=B2
loop_end=260397
loop_mode=loop_continuous
loop_start=84646
loop_xfade=21296
lovel=0
lpc=ysS0QrCHTMNN7AtDezVtwi0khkLeIx3C3BsEQmhBUMIWoARCHKOQwTGMsUHv/0fBLdK7vmRDBsA5Y0FAUsDRvqB/CsFCbVpBQSffv51FOT99vAHBLjzJP+1dw0C76lrA
lpc_rms=-24.35
sample=Contrabassoon_sustain_FF_B3.opus
</region>

<region>
hivel=127
key=C#1
loop_end=266353
loop_mode=loop_continuous
loop_start=86582
loop_xfade=21783
lovel=0
lpc=V8kBQxZph8OZ/hxDRvKWwuuW2UJiJlvCcsxVQToQFEBQfXZBb9EcwskHTUHxsovBotDWQVojUsFF6RFA1T42QAhmHkFgER7BY+tLQI2I971np+7AtdJ5QEcxycAlGNpA
lpc_rms=-18.51
sample=Contrabassoon_sustain_FF_C#2.opus
</region>

<region>
hivel=127
key=C#2
loop_end=257180
loop_mode=loop_continuous
loop_start=83601
loop_xfade=21033
lovel=0
lpc=xlXiQmhGicPgfmlDBL8Hw6OQ2EKLY1DCTW/eQS+M8sHoErxAZ/xgQQQS7cHg9AJCdQmZwNFC3L8C/YjBfcNnQWnSAMEYA/++D/pTQStsDcG0Tk1A4xkowSwAUUGxY5zA
lpc_rms=-18.89
sample=Contrabassoon_sustain_FF_C#3.opus
</region>

<region>
hivel=127
key=C#3
loop_end=258901
loop_mode=loop_continuous
loop_start=84160
loop_xfade=21173
lovel=0
lpc=2O6gQr/iOsOgEQtDjXyPwvouhELSzo3B0L9BP52XScFJhc4/shCLP0PVUcGKKJxBQQfnv668AsAbv/nAuuOaQOKLoL/1EKe/FXHTQGi82b/0ydxAYDZVwdMn5T9GnzlA
lpc_rms=-22.28
sample=Contrabassoon_sustain_FF_C#4.opus
</region>

<region>
hivel=127
key=C1
loop_end=264182
loop_mode=loop_continuous
loop_start=85877
loop_xfade=21605
lovel=0
lpc=jm06QydV2cNsf5BDU+NowkkcikLy/3vCJ5v/vr0840GJXAhBaYAgwimgFkHj4XTBZtBiQoUFV8LobMVBeQmkwZso0UH0O0rA8uTAvwwltsHDk6RByRLKwAEYVcDvSKJA
lpc_rms=-16.02
sample=Contrabassoon_sustain_FF_C2.opus
</region>

<region>
hivel=127
key=C2
loop_end=266892
loop_mode=loop_continuous
loop_start=86758
loop_xfade=21827
lovel=0
lpc=bi2vQmv7a8NdJ3FDCY8Sw8KblkLHBhzBue2qwUDEZEEwXUPBty7UQVJhMMLXciZCSzRmwUjuYMCsz8tAy4VcwUNA8kD61kg/l0AEQSkzE8GQ1Dq/jfaQQPAMdcB3n/Q/
lpc_rms=-22.77
sample=Contrabassoon_sustain_FF_C3.opus
</region>

<region>
hivel=127
key=C3
loop_end=253691
loop_mode=loop_continuous
loop_start=82466
loop_xfade=20747
lovel=0
lpc=ca9dQv3c7sIvF5NCoJrKwUos90HST2nBbSssQbrYm8HnXTJB5xAdwejxCEHmQgY/g62BQI+msMA3cUa/fkDav1JU6r8aPYNACaR3vzANHkDnLRLA/6CVQIjbCcExV5BA
lpc_rms=-27.04
sample=Contrabassoon_sustain_FF_C4.opus
</region>

<region>
hivel=127
key=D#1
loop_end=266448
loop_mode=loop_continuous
loop_start=86613
loop_xfade=21791
lovel=0
lpc=OnolQ1ip0MMfzsND0qV9w19mSEPW1d3Cghdgvye6eULaLkLC6dgCQkt3OsL6ip5B0jcgQp/AgsKFkXpCAzBDwiR99kHFLzDBZCw8wQ81CEFTkjHBiUWRQR+hi8AKrbW/
lpc_rms=-16.87
sample=Contrabassoon_sustain_FF_D#2.opus
</region>

<region>
hivel=127
key=D#2
loop_end=264573
loop_mode=loop_continuous
loop_start=86004
loop_xfade=21637
lovel=0
lpc=EUdKQlPR9cIv9tdCA06BwhdZKUKvsTPBiSh/QcdDE8LsqNBBGElqwWkzhEFuRirBJwCxQE10DcFNaJ9ADpoQv1NrfD+amAfAkznMQGvF2cAuKJFAoo0JwCsxH8AAExhA
lpc_rms=-26.22
sample=Contrabassoon_sustain_FF_D#3.opus
</region>

<region>
hivel=127
key=D1
loop_end=263866
loop_mode=loop_continuous
loop_start=85774
loop_xfade=21579
lovel=0
lpc=yXQXQ0l8uMP6MopD3kC6wur8vUI9OqfChCMpQZ78DULm4JjBnmTZQFGx88EcQqVBA/2OQA3PwMFJX0dCE84swnZKj0HSik/BcyDeQNQ0wz9uHSjB575SQWFog797UjLA
lpc_rms=-20.14
sample=Contrabassoon_sustain_FF_D2.opus
</region>

<region>
hivel=127
key=D2
loop_end=265180
loop_mode=loop_continuous
loop_start=86201
loop_xfade=21687
lovel=0
lpc=KopqQleRAsNiVtlCg2qVwjLQNELXaInA0A1YQZtesMG98+VAXTx4wHh5Kr+UEQZBVli4v9gSgr/SCBDB8vgfQYUDYsECUz5Biwa7QHOUO8EgaCpBo78KwTrF4j5Q/BNA
lpc_rms=-20.54
sample=Contrabassoon_sustain_FF_D3.opus
</region>

<region>
hikey=A3
hivel=127
lokey=D3
loop_end=262297
loop_mode=loop_continuous
loop_start=85264
loop_xfade=21451
lovel=0
lpc=Y0vaQu2MfMO2SVRDprYGw8XytULadN3BQKAjQkNvX8LtMdNBaer7waOd8EGXVwfBg3bdQL8ERkAM+fnA0twjPwfjgMH3aYdBXEmiwBvLLUEwirDAjdgBwEf278CrnfBA
lpc_rms=-20.12
pitch_keycenter=D3
sample=Contrabassoon_sustain_FF_D4.opus
tune=-2
</region>

<region>
hivel=127
key=E1
loop_end=264003
loop_mode=loop_continuous
loop_start=85818
loop_xfade=21591
lovel=0
lpc=2iHXQjY7fcNVeipD+YggwipbZELVR1TCqHlMQSl3IkFyAOjBhBUoQqiZVMJXQAlCHekyQREkDMItQg9CsCjywfzNwEH+7ubBW8O8QTevmcBxbqBAhHl4QJEsw8EOJGRB
lpc_rms=-21.43
sample=Contrabassoon_sustain_FF_E2.opus
</region>

<region>
hivel=127
key=E2
loop_end=260651
loop_mode=loop_continuous
loop_start=84729
loop_xfade=21316
lovel=0
lpc=xRq9QtnTZMPHVk1Dht8Iw4cP0EIrb3rCxwCHQvmBl8IG+ndCnSJYwo8iNEIVVfHBp/DKQW+Yy8GoMZpBMkfDwcrKgUGJ7JK/i2DLwDJIs0G9mc7BNJe5QarFssGU6xZB
lpc_rms=-20.30
sample=Contrabassoon_sustain_FF_E3.opus
</region>

<region>
hivel=127
key=F#1
loop_end=263618
loop_mode=loop_continuous
loop_start=85693
loop_xfade=21559
lovel=0
lpc=Nu0TQ9nVuMNgpqVDeNJLw010IEP9xJfCt7qlQSYqmsHiumpBbbcZQV0FKMKcWCpCARquwQDCAz9Yt6BB4pl2wRRb0z6km3jACq12wBAwkUBZoDVA5XqHQLyC5D6nh4jA
lpc_rms=-18.90
sample=Contrabassoon_sustain_FF_F#2.opus
</region>

<region>
hivel=127
key=F#2
loop_end=253836
loop_mode=loop_continuous
loop_start=82514
loop_xfade=20759
lovel=0
lpc=RUoWQwoZtsPwNJRDqR4kw+dtFkP7PpnCFDwKQngvaMIEEj9CVuitwc0DCUAmU6tB3D3ywU3p7EFojiPCGEQmQu5q08HsAiNBazHsP7nHnMHEvA9CxhwpwqA8EkLcD2DB
lpc_rms=-18.65
sample=Contrabassoon_sustain_FF_F#3.opus
</region>

<region>
hivel=127
key=F1
loop_end=262360
loop_mode=loop_continuous
loop_start=85284
loop_xfade=21456
lovel=0
lpc=UNgKQ6CFosN0NmlDnp7Ewvqo50K7Q8PC2L19QodJFsKamLFBB+fOwUGgukErTd/BwwDjQa820sEITsZBRU2RwTWFR0FegEPBrQUnQQ9ImMBrm+LA2ZiGQbtL9sAxJmy/
lpc_rms=-19.46
sample=Contrabassoon_sustain_FF_F2.opus
</region>

<region>
hivel=127
key=F2
loop_end=263341
loop_mode=loop_continuous
loop_start=85603
loop_xfade=21537
lovel=0
lpc=TiOFQko2JMPoMRdDLe/RwsV1pUJrciDCXkQeQk25WsJII9hBc7i5wACaBEHQxsO/LGlmP8gZSsGUGMdA8zujv9iUTr6QWQNB566rPxCJA8FZRQlBekCFwTsxLUESMze/
lpc_rms=-24.84
sample=Contrabassoon_sustain_FF_F3.opus
</region>

<region>
hivel=127
key=G#1
loop_end=272147
loop_mode=loop_continuous
loop_start=88466
loop_xfade=22257
lovel=0
lpc=Ep7MQv9rh8PJM4NDml4awxrC3kLUeZvCRr8/QgcHKMLpzh1CrWgOwf7v78EX2gNCGP+Lwb5xzkD6buRArWz3wFchjcHpdeVBFJF5wSclpEAS+MHA31EDQZe6gL/fLRDA
lpc_rms=-21.66
sample=Contrabassoon_sustain_FF_G#2.opus
</region>

<region>
hivel=127
key=G#2
loop_end=276759
loop_mode=loop_continuous
loop_start=89965
loop_xfade=22634
lovel=0
lpc=RPzwQjzdh8N95jFDfhuHwpYyn0LUJfrBaYInQfL2u8EJFhTA71KYwC8Xb0G6LiBBKbCNwOmBtMCEFS3AEgbbwGfAP7/voaRAOJdxQTxLDMEHsozA9zfNvztMjj/qsuQ/
lpc_rms=-22.06
sample=Contrabassoon_sustain_FF_G#3.opus
</region>

<region>
hivel=127
key=G1
loop_end=258412
loop_mode=loop_continuous
loop_start=84001
loop_xfade=21133
lovel=0
lpc=FgAAQ5zqocN3oolDGLT4wmiCqUK3LSHCfXgYQGn4XcFFi1hBLsVEQU7yt8G8OKBBjGOUwaX9OEEkigbAiDJFQYIB7sHvtkRBypNUQC/5U78xh1tAAQA6QOXyDsEn4XVA
lpc_rms=-20.07
sample=Contrabassoon_sustain_FF_G2.opus
</region>

<region>
hivel=127
key=G2
loop_end=258338
loop_mode=loop_continuous
loop_start=83977
loop_xfade=21127
lovel=0
lpc=J00HQwoOlsPPiDdDkpOHwosLu0KIXdXBUwDCQL4uLMJuFoRB3T8BwWEvtkG5rrvAsauCv2hXXsAHyUbAe+alPtrTc8Fg7eNA487LQUxYhsFUHthAl+R4wLrW9cCX07RA
lpc_rms=-19.73
sample=Contrabassoon_sustain_FF_G3.opus
</region>
</group>